<svg xmlns="http://www.w3.org/2000/svg" width="400" height="400" fill="#A1A1AA"><path d="M110.526 51.163C56.837 78.267 60.314 74.1 43.033 132.055-4.412 291.174-4.816 314.197 39.406 338.97c55.178 30.912 91.714 34.818 103.971 11.116 5.742-11.105 5.372-11.943-9.264-20.949-13.851-8.523-36.745-28.349-36.745-31.822 0-1.108 9.178 1.555 20.395 5.919 45.881 17.848 79.895 19.149 139.865 5.35 10.021-2.306 4.756 2.848-15.273 14.949l-18.271 11.04.587 22.834c.503 19.576 1.259 22.963 5.298 23.741 7.899 1.521 50.698-15.295 93.715-36.821 63.295-31.675 69.704-38.803 68.945-76.683-1.842-91.891-35.158-178.487-80.165-208.365-33.675-22.355-104.032-35.032-74.355-13.398 34.128 24.88 33.944 23.141 2.094 19.846-33.686-3.485-86.424 4.677-102.045 15.794-16.185 11.517-14.256 3.72 4.605-18.619 15.47-18.323 20.771-30.954 13.816-32.917-1.447-.408-22.171 9.122-46.053 21.178m31.579-2.241c0 .855-5.147 7.664-11.437 15.132-15.652 18.581-25.405 33.625-25.405 39.188 0 6.059-.798 6.268 21.509-5.641 44.704-23.866 105.86-30.067 150.666-15.277 33.306 10.994 33.973 6.247 2.351-16.728-24.85-18.054-25.397-21.355-2.185-13.196 57.226 20.113 93.012 82.969 103.826 182.365 5.385 49.496 3.209 61.294-13.664 74.075-18.769 14.217-97.235 51.58-127.634 60.776-12.936 3.913-8.399-27.811 5.263-36.807 62.596-41.217 95.003-75.612 45.928-48.749-56.402 30.876-130.263 31.47-189.908 1.528-28.038-14.075-32.844-12.672-19.914 5.813 12.509 17.885 28.395 33.93 42.69 43.12 29.191 18.766-4.483 28.777-43.928 13.06-55.595-22.153-66.197-33.805-63.644-69.949C18.626 249.22 60.344 93.867 68.031 86.179c7.114-7.114 74.074-40.793 74.074-37.257m104.453 122.203c-13.087 10.295-12.736 40.689.634 55.002 14.619 15.649 40.65 5.82 47.801-18.049 7.411-24.738-28.821-52.381-48.435-36.953m-121.773-.277c-23.961 10.23-26.224 43.358-4.378 64.119 28.361 26.953 64.688-12.811 43.747-47.885-8.41-14.085-26.718-21.635-39.369-16.234m152.332 14.375c15.151 13.878 6.638 41.093-12.855 41.093-25.237 0-23.719-45.174 1.671-49.738.803-.144 5.836 3.746 11.184 8.645m-127.905-.355c11.995 13.17 14.298 25.413 7.319 38.909-9.942 19.227-37.312 7.914-42.28-17.476-3.662-18.715 22.711-34.883 34.961-21.433"/></svg>