<?xml version="1.0" standalone="no"?>
<!DOCTYPE svg PUBLIC "-//W3C//DTD SVG 20010904//EN"
 "http://www.w3.org/TR/2001/REC-SVG-20010904/DTD/svg10.dtd">
<svg version="1.0" xmlns="http://www.w3.org/2000/svg"
 width="162.000000pt" height="162.000000pt" viewBox="0 0 162.000000 162.000000"
 preserveAspectRatio="xMidYMid meet">
<metadata>
Created by potrace 1.14, written by Peter Selinger 2001-2017
</metadata>
<g transform="translate(0.000000,162.000000) scale(0.100000,-0.100000)"
fill="#000000" stroke="none">
<path d="M1033 1555 c-16 -7 -38 -24 -49 -37 -10 -13 -27 -27 -36 -31 -20 -7
-23 -28 -8 -43 6 -6 19 -26 29 -46 l18 -36 -91 -1 c-119 -1 -148 -5 -259 -37
-17 -5 -17 -3 -5 28 8 18 13 58 13 88 0 48 -2 55 -20 55 -11 0 -23 4 -26 8 -3
5 -22 12 -42 17 -55 12 -107 -19 -224 -135 l-102 -100 -29 -95 c-47 -149 -141
-487 -158 -570 -9 -41 -17 -113 -17 -160 -1 -134 22 -162 216 -260 56 -28 125
-64 152 -80 28 -16 64 -30 82 -30 46 0 89 41 108 103 l16 52 -52 48 c-28 26
-65 55 -82 64 -33 16 -74 53 -60 53 4 0 37 -11 73 -25 94 -35 186 -52 297 -54
87 -2 211 14 268 34 11 4 -16 -17 -60 -48 l-81 -55 2 -93 2 -94 38 -8 c90 -17
106 -11 364 143 220 132 263 166 279 224 12 43 2 253 -14 316 -2 8 -7 34 -10
57 -17 123 -77 293 -140 398 -19 32 -35 61 -35 65 0 19 -78 121 -134 173 -113
107 -169 135 -223 112z m-431 -693 c45 -41 53 -74 32 -127 -17 -40 -35 -56
-69 -60 -23 -3 -61 29 -75 63 -21 51 -14 95 20 132 32 34 48 32 92 -8z m516
-2 c39 -35 43 -43 37 -69 -9 -40 -60 -84 -89 -75 -37 11 -58 40 -63 86 -6 53
8 85 39 91 13 2 25 5 28 5 3 1 25 -16 48 -38z"/>
</g>
</svg>
